<svg xmlns="http://www.w3.org/2000/svg" xmlns:xlink="http://www.w3.org/1999/xlink" width="600" height="400" viewBox="0 0 2400 1600">
<defs>
  <clipPath id="clip750">
    <rect x="0" y="0" width="2400" height="1600"></rect>
  </clipPath>
</defs>
<path clip-path="url(#clip750)" d="M0 1600 L2400 1600 L2400 0 L0 0  Z" fill="#ffffff" fill-rule="evenodd" fill-opacity="1"></path>
<defs>
  <clipPath id="clip751">
    <rect x="480" y="0" width="1681" height="1600"></rect>
  </clipPath>
</defs>
<path clip-path="url(#clip750)" d="M175.445 1423.18 L2352.76 1423.18 L2352.76 123.472 L175.445 123.472  Z" fill="#ffffff" fill-rule="evenodd" fill-opacity="1"></path>
<defs>
  <clipPath id="clip752">
    <rect x="175" y="123" width="2178" height="1301"></rect>
  </clipPath>
</defs>
<polyline clip-path="url(#clip752)" style="stroke:#000000; stroke-linecap:round; stroke-linejoin:round; stroke-width:2; stroke-opacity:0.1; fill:none" points="175.445,1423.18 175.445,123.472 "></polyline>
<polyline clip-path="url(#clip752)" style="stroke:#000000; stroke-linecap:round; stroke-linejoin:round; stroke-width:2; stroke-opacity:0.1; fill:none" points="610.907,1423.18 610.907,123.472 "></polyline>
<polyline clip-path="url(#clip752)" style="stroke:#000000; stroke-linecap:round; stroke-linejoin:round; stroke-width:2; stroke-opacity:0.1; fill:none" points="1046.37,1423.18 1046.37,123.472 "></polyline>
<polyline clip-path="url(#clip752)" style="stroke:#000000; stroke-linecap:round; stroke-linejoin:round; stroke-width:2; stroke-opacity:0.1; fill:none" points="1481.83,1423.18 1481.83,123.472 "></polyline>
<polyline clip-path="url(#clip752)" style="stroke:#000000; stroke-linecap:round; stroke-linejoin:round; stroke-width:2; stroke-opacity:0.1; fill:none" points="1917.29,1423.18 1917.29,123.472 "></polyline>
<polyline clip-path="url(#clip752)" style="stroke:#000000; stroke-linecap:round; stroke-linejoin:round; stroke-width:2; stroke-opacity:0.1; fill:none" points="2352.76,1423.18 2352.76,123.472 "></polyline>
<polyline clip-path="url(#clip752)" style="stroke:#000000; stroke-linecap:round; stroke-linejoin:round; stroke-width:2; stroke-opacity:0.1; fill:none" points="175.445,1260.72 2352.76,1260.72 "></polyline>
<polyline clip-path="url(#clip752)" style="stroke:#000000; stroke-linecap:round; stroke-linejoin:round; stroke-width:2; stroke-opacity:0.1; fill:none" points="175.445,935.789 2352.76,935.789 "></polyline>
<polyline clip-path="url(#clip752)" style="stroke:#000000; stroke-linecap:round; stroke-linejoin:round; stroke-width:2; stroke-opacity:0.1; fill:none" points="175.445,610.863 2352.76,610.863 "></polyline>
<polyline clip-path="url(#clip752)" style="stroke:#000000; stroke-linecap:round; stroke-linejoin:round; stroke-width:2; stroke-opacity:0.1; fill:none" points="175.445,285.936 2352.76,285.936 "></polyline>
<polyline clip-path="url(#clip750)" style="stroke:#000000; stroke-linecap:round; stroke-linejoin:round; stroke-width:4; stroke-opacity:1; fill:none" points="175.445,1423.18 2352.76,1423.18 "></polyline>
<polyline clip-path="url(#clip750)" style="stroke:#000000; stroke-linecap:round; stroke-linejoin:round; stroke-width:4; stroke-opacity:1; fill:none" points="175.445,1423.18 175.445,1404.28 "></polyline>
<polyline clip-path="url(#clip750)" style="stroke:#000000; stroke-linecap:round; stroke-linejoin:round; stroke-width:4; stroke-opacity:1; fill:none" points="610.907,1423.18 610.907,1404.28 "></polyline>
<polyline clip-path="url(#clip750)" style="stroke:#000000; stroke-linecap:round; stroke-linejoin:round; stroke-width:4; stroke-opacity:1; fill:none" points="1046.37,1423.18 1046.37,1404.28 "></polyline>
<polyline clip-path="url(#clip750)" style="stroke:#000000; stroke-linecap:round; stroke-linejoin:round; stroke-width:4; stroke-opacity:1; fill:none" points="1481.83,1423.18 1481.83,1404.28 "></polyline>
<polyline clip-path="url(#clip750)" style="stroke:#000000; stroke-linecap:round; stroke-linejoin:round; stroke-width:4; stroke-opacity:1; fill:none" points="1917.29,1423.18 1917.29,1404.28 "></polyline>
<polyline clip-path="url(#clip750)" style="stroke:#000000; stroke-linecap:round; stroke-linejoin:round; stroke-width:4; stroke-opacity:1; fill:none" points="2352.76,1423.18 2352.76,1404.28 "></polyline>
<path clip-path="url(#clip750)" d="M175.445 1454.1 Q171.834 1454.1 170.005 1457.66 Q168.2 1461.2 168.2 1468.33 Q168.2 1475.44 170.005 1479.01 Q171.834 1482.55 175.445 1482.55 Q179.079 1482.55 180.885 1479.01 Q182.714 1475.44 182.714 1468.33 Q182.714 1461.2 180.885 1457.66 Q179.079 1454.1 175.445 1454.1 M175.445 1450.39 Q181.255 1450.39 184.311 1455 Q187.39 1459.58 187.39 1468.33 Q187.39 1477.06 184.311 1481.67 Q181.255 1486.25 175.445 1486.25 Q169.635 1486.25 166.556 1481.67 Q163.501 1477.06 163.501 1468.33 Q163.501 1459.58 166.556 1455 Q169.635 1450.39 175.445 1450.39 Z" fill="#000000" fill-rule="nonzero" fill-opacity="1"></path><path clip-path="url(#clip750)" d="M605.56 1481.64 L621.88 1481.64 L621.88 1485.58 L599.935 1485.58 L599.935 1481.64 Q602.597 1478.89 607.181 1474.26 Q611.787 1469.61 612.968 1468.27 Q615.213 1465.74 616.093 1464.01 Q616.995 1462.25 616.995 1460.56 Q616.995 1457.8 615.051 1456.07 Q613.13 1454.33 610.028 1454.33 Q607.829 1454.33 605.375 1455.09 Q602.944 1455.86 600.167 1457.41 L600.167 1452.69 Q602.991 1451.55 605.444 1450.97 Q607.898 1450.39 609.935 1450.39 Q615.305 1450.39 618.5 1453.08 Q621.694 1455.77 621.694 1460.26 Q621.694 1462.39 620.884 1464.31 Q620.097 1466.2 617.991 1468.8 Q617.412 1469.47 614.31 1472.69 Q611.208 1475.88 605.56 1481.64 Z" fill="#000000" fill-rule="nonzero" fill-opacity="1"></path><path clip-path="url(#clip750)" d="M1049.38 1455.09 L1037.57 1473.54 L1049.38 1473.54 L1049.38 1455.09 M1048.15 1451.02 L1054.03 1451.02 L1054.03 1473.54 L1058.96 1473.54 L1058.96 1477.43 L1054.03 1477.43 L1054.03 1485.58 L1049.38 1485.58 L1049.38 1477.43 L1033.78 1477.43 L1033.78 1472.92 L1048.15 1451.02 Z" fill="#000000" fill-rule="nonzero" fill-opacity="1"></path><path clip-path="url(#clip750)" d="M1482.24 1466.44 Q1479.09 1466.44 1477.24 1468.59 Q1475.41 1470.74 1475.41 1474.49 Q1475.41 1478.22 1477.24 1480.39 Q1479.09 1482.55 1482.24 1482.55 Q1485.38 1482.55 1487.21 1480.39 Q1489.07 1478.22 1489.07 1474.49 Q1489.07 1470.74 1487.21 1468.59 Q1485.38 1466.44 1482.24 1466.44 M1491.52 1451.78 L1491.52 1456.04 Q1489.76 1455.21 1487.95 1454.77 Q1486.17 1454.33 1484.41 1454.33 Q1479.78 1454.33 1477.33 1457.45 Q1474.9 1460.58 1474.55 1466.9 Q1475.92 1464.89 1477.98 1463.82 Q1480.04 1462.73 1482.51 1462.73 Q1487.72 1462.73 1490.73 1465.9 Q1493.76 1469.05 1493.76 1474.49 Q1493.76 1479.82 1490.62 1483.03 Q1487.47 1486.25 1482.24 1486.25 Q1476.24 1486.25 1473.07 1481.67 Q1469.9 1477.06 1469.9 1468.33 Q1469.9 1460.14 1473.79 1455.28 Q1477.68 1450.39 1484.23 1450.39 Q1485.99 1450.39 1487.77 1450.74 Q1489.57 1451.09 1491.52 1451.78 Z" fill="#000000" fill-rule="nonzero" fill-opacity="1"></path><path clip-path="url(#clip750)" d="M1917.29 1469.17 Q1913.96 1469.17 1912.04 1470.95 Q1910.14 1472.73 1910.14 1475.86 Q1910.14 1478.98 1912.04 1480.77 Q1913.96 1482.55 1917.29 1482.55 Q1920.63 1482.55 1922.55 1480.77 Q1924.47 1478.96 1924.47 1475.86 Q1924.47 1472.73 1922.55 1470.95 Q1920.65 1469.17 1917.29 1469.17 M1912.62 1467.18 Q1909.61 1466.44 1907.92 1464.38 Q1906.25 1462.32 1906.25 1459.35 Q1906.25 1455.21 1909.19 1452.8 Q1912.15 1450.39 1917.29 1450.39 Q1922.46 1450.39 1925.4 1452.8 Q1928.34 1455.21 1928.34 1459.35 Q1928.34 1462.32 1926.65 1464.38 Q1924.98 1466.44 1921.99 1467.18 Q1925.37 1467.96 1927.25 1470.26 Q1929.15 1472.55 1929.15 1475.86 Q1929.15 1480.88 1926.07 1483.57 Q1923.01 1486.25 1917.29 1486.25 Q1911.58 1486.25 1908.5 1483.57 Q1905.44 1480.88 1905.44 1475.86 Q1905.44 1472.55 1907.34 1470.26 Q1909.24 1467.96 1912.62 1467.18 M1910.9 1459.79 Q1910.9 1462.48 1912.57 1463.98 Q1914.26 1465.49 1917.29 1465.49 Q1920.3 1465.49 1921.99 1463.98 Q1923.71 1462.48 1923.71 1459.79 Q1923.71 1457.11 1921.99 1455.6 Q1920.3 1454.1 1917.29 1454.1 Q1914.26 1454.1 1912.57 1455.6 Q1910.9 1457.11 1910.9 1459.79 Z" fill="#000000" fill-rule="nonzero" fill-opacity="1"></path><path clip-path="url(#clip750)" d="M2327.44 1481.64 L2335.08 1481.64 L2335.08 1455.28 L2326.77 1456.95 L2326.77 1452.69 L2335.04 1451.02 L2339.71 1451.02 L2339.71 1481.64 L2347.35 1481.64 L2347.35 1485.58 L2327.44 1485.58 L2327.44 1481.64 Z" fill="#000000" fill-rule="nonzero" fill-opacity="1"></path><path clip-path="url(#clip750)" d="M2366.8 1454.1 Q2363.18 1454.1 2361.36 1457.66 Q2359.55 1461.2 2359.55 1468.33 Q2359.55 1475.44 2361.36 1479.01 Q2363.18 1482.55 2366.8 1482.55 Q2370.43 1482.55 2372.23 1479.01 Q2374.06 1475.44 2374.06 1468.33 Q2374.06 1461.2 2372.23 1457.66 Q2370.43 1454.1 2366.8 1454.1 M2366.8 1450.39 Q2372.61 1450.39 2375.66 1455 Q2378.74 1459.58 2378.74 1468.33 Q2378.74 1477.06 2375.66 1481.67 Q2372.61 1486.25 2366.8 1486.25 Q2360.99 1486.25 2357.91 1481.67 Q2354.85 1477.06 2354.85 1468.33 Q2354.85 1459.58 2357.91 1455 Q2360.99 1450.39 2366.8 1450.39 Z" fill="#000000" fill-rule="nonzero" fill-opacity="1"></path><path clip-path="url(#clip750)" d="M1185.98 1520.52 L1226.18 1520.52 L1226.18 1525.93 L1209.31 1525.93 L1209.31 1568.04 L1202.85 1568.04 L1202.85 1525.93 L1185.98 1525.93 L1185.98 1520.52 Z" fill="#000000" fill-rule="nonzero" fill-opacity="1"></path><path clip-path="url(#clip750)" d="M1230.12 1532.4 L1235.98 1532.4 L1235.98 1568.04 L1230.12 1568.04 L1230.12 1532.4 M1230.12 1518.52 L1235.98 1518.52 L1235.98 1525.93 L1230.12 1525.93 L1230.12 1518.52 Z" fill="#000000" fill-rule="nonzero" fill-opacity="1"></path><path clip-path="url(#clip750)" d="M1275.99 1539.24 Q1278.18 1535.29 1281.24 1533.41 Q1284.3 1531.54 1288.43 1531.54 Q1294 1531.54 1297.03 1535.45 Q1300.05 1539.33 1300.05 1546.53 L1300.05 1568.04 L1294.16 1568.04 L1294.16 1546.72 Q1294.16 1541.59 1292.35 1539.11 Q1290.53 1536.63 1286.81 1536.63 Q1282.26 1536.63 1279.62 1539.65 Q1276.98 1542.68 1276.98 1547.9 L1276.98 1568.04 L1271.09 1568.04 L1271.09 1546.72 Q1271.09 1541.56 1269.27 1539.11 Q1267.46 1536.63 1263.67 1536.63 Q1259.18 1536.63 1256.54 1539.68 Q1253.9 1542.71 1253.9 1547.9 L1253.9 1568.04 L1248.01 1568.04 L1248.01 1532.4 L1253.9 1532.4 L1253.9 1537.93 Q1255.9 1534.66 1258.71 1533.1 Q1261.51 1531.54 1265.36 1531.54 Q1269.24 1531.54 1271.95 1533.51 Q1274.68 1535.48 1275.99 1539.24 Z" fill="#000000" fill-rule="nonzero" fill-opacity="1"></path><path clip-path="url(#clip750)" d="M1342.22 1548.76 L1342.22 1551.62 L1315.3 1551.62 Q1315.68 1557.67 1318.93 1560.85 Q1322.2 1564 1328.03 1564 Q1331.4 1564 1334.55 1563.17 Q1337.74 1562.35 1340.86 1560.69 L1340.86 1566.23 Q1337.7 1567.57 1334.39 1568.27 Q1331.08 1568.97 1327.68 1568.97 Q1319.15 1568.97 1314.15 1564 Q1309.19 1559.04 1309.19 1550.57 Q1309.19 1541.82 1313.9 1536.69 Q1318.64 1531.54 1326.66 1531.54 Q1333.85 1531.54 1338.02 1536.18 Q1342.22 1540.8 1342.22 1548.76 M1336.37 1547.04 Q1336.3 1542.23 1333.66 1539.37 Q1331.05 1536.5 1326.72 1536.5 Q1321.82 1536.5 1318.86 1539.27 Q1315.93 1542.04 1315.49 1547.07 L1336.37 1547.04 Z" fill="#000000" fill-rule="nonzero" fill-opacity="1"></path><polyline clip-path="url(#clip750)" style="stroke:#000000; stroke-linecap:round; stroke-linejoin:round; stroke-width:4; stroke-opacity:1; fill:none" points="175.445,1423.18 175.445,123.472 "></polyline>
<polyline clip-path="url(#clip750)" style="stroke:#000000; stroke-linecap:round; stroke-linejoin:round; stroke-width:4; stroke-opacity:1; fill:none" points="175.445,1260.72 194.343,1260.72 "></polyline>
<polyline clip-path="url(#clip750)" style="stroke:#000000; stroke-linecap:round; stroke-linejoin:round; stroke-width:4; stroke-opacity:1; fill:none" points="175.445,935.789 194.343,935.789 "></polyline>
<polyline clip-path="url(#clip750)" style="stroke:#000000; stroke-linecap:round; stroke-linejoin:round; stroke-width:4; stroke-opacity:1; fill:none" points="175.445,610.863 194.343,610.863 "></polyline>
<polyline clip-path="url(#clip750)" style="stroke:#000000; stroke-linecap:round; stroke-linejoin:round; stroke-width:4; stroke-opacity:1; fill:none" points="175.445,285.936 194.343,285.936 "></polyline>
<path clip-path="url(#clip750)" d="M119.538 1274.06 L127.177 1274.06 L127.177 1247.7 L118.867 1249.36 L118.867 1245.1 L127.13 1243.44 L131.806 1243.44 L131.806 1274.06 L139.445 1274.06 L139.445 1278 L119.538 1278 L119.538 1274.06 Z" fill="#000000" fill-rule="nonzero" fill-opacity="1"></path><path clip-path="url(#clip750)" d="M123.126 949.134 L139.445 949.134 L139.445 953.069 L117.501 953.069 L117.501 949.134 Q120.163 946.38 124.746 941.75 Q129.353 937.097 130.533 935.755 Q132.779 933.232 133.658 931.495 Q134.561 929.736 134.561 928.046 Q134.561 925.292 132.617 923.556 Q130.695 921.82 127.593 921.82 Q125.394 921.82 122.941 922.584 Q120.51 923.347 117.732 924.898 L117.732 920.176 Q120.556 919.042 123.01 918.463 Q125.464 917.884 127.501 917.884 Q132.871 917.884 136.066 920.57 Q139.26 923.255 139.26 927.746 Q139.26 929.875 138.45 931.796 Q137.663 933.695 135.556 936.287 Q134.978 936.958 131.876 940.176 Q128.774 943.37 123.126 949.134 Z" fill="#000000" fill-rule="nonzero" fill-opacity="1"></path><path clip-path="url(#clip750)" d="M132.316 609.508 Q135.672 610.226 137.547 612.494 Q139.445 614.763 139.445 618.096 Q139.445 623.212 135.927 626.013 Q132.408 628.814 125.927 628.814 Q123.751 628.814 121.436 628.374 Q119.144 627.957 116.691 627.101 L116.691 622.587 Q118.635 623.721 120.95 624.3 Q123.265 624.879 125.788 624.879 Q130.186 624.879 132.478 623.143 Q134.792 621.406 134.792 618.096 Q134.792 615.041 132.64 613.328 Q130.51 611.592 126.691 611.592 L122.663 611.592 L122.663 607.749 L126.876 607.749 Q130.325 607.749 132.154 606.383 Q133.982 604.994 133.982 602.402 Q133.982 599.74 132.084 598.328 Q130.209 596.893 126.691 596.893 Q124.769 596.893 122.57 597.309 Q120.371 597.726 117.732 598.606 L117.732 594.439 Q120.394 593.698 122.709 593.328 Q125.047 592.958 127.107 592.958 Q132.431 592.958 135.533 595.388 Q138.635 597.795 138.635 601.916 Q138.635 604.786 136.992 606.777 Q135.348 608.744 132.316 609.508 Z" fill="#000000" fill-rule="nonzero" fill-opacity="1"></path><path clip-path="url(#clip750)" d="M129.862 272.73 L118.056 291.179 L129.862 291.179 L129.862 272.73 M128.635 268.656 L134.515 268.656 L134.515 291.179 L139.445 291.179 L139.445 295.067 L134.515 295.067 L134.515 303.216 L129.862 303.216 L129.862 295.067 L114.26 295.067 L114.26 290.554 L128.635 268.656 Z" fill="#000000" fill-rule="nonzero" fill-opacity="1"></path><path clip-path="url(#clip750)" d="M18.0438 877.819 L24.314 877.819 Q22.5634 881.479 21.704 884.726 Q20.8447 887.972 20.8447 890.996 Q20.8447 896.248 22.8817 899.112 Q24.9187 901.945 28.6745 901.945 Q31.8255 901.945 33.4488 900.067 Q35.0402 898.157 36.0269 892.874 L36.8226 888.991 Q38.1912 881.798 41.6605 878.392 Q45.098 874.954 50.8908 874.954 Q57.7976 874.954 61.3624 879.601 Q64.9272 884.217 64.9272 893.16 Q64.9272 896.534 64.1633 900.354 Q63.3994 904.141 61.9035 908.215 L55.2831 908.215 Q57.4793 904.3 58.5933 900.545 Q59.7073 896.789 59.7073 893.16 Q59.7073 887.654 57.543 884.662 Q55.3786 881.67 51.3682 881.67 Q47.8671 881.67 45.8937 883.835 Q43.9204 885.967 42.9337 890.869 L42.1698 894.784 Q40.7375 901.977 37.682 905.192 Q34.6264 908.406 29.1837 908.406 Q22.8817 908.406 19.2532 903.982 Q15.6248 899.526 15.6248 891.728 Q15.6248 888.386 16.2295 884.917 Q16.8343 881.448 18.0438 877.819 Z" fill="#000000" fill-rule="nonzero" fill-opacity="1"></path><path clip-path="url(#clip750)" d="M49.9359 865.788 L28.3562 865.788 L28.3562 859.931 L49.7131 859.931 Q54.7739 859.931 57.3202 857.958 Q59.8346 855.985 59.8346 852.038 Q59.8346 847.295 56.8109 844.558 Q53.7872 841.789 48.5673 841.789 L28.3562 841.789 L28.3562 835.933 L64.0042 835.933 L64.0042 841.789 L58.5296 841.789 Q61.7762 843.922 63.3676 846.754 Q64.9272 849.555 64.9272 853.279 Q64.9272 859.422 61.1078 862.605 Q57.2883 865.788 49.9359 865.788 M27.4968 851.051 L27.4968 851.051 Z" fill="#000000" fill-rule="nonzero" fill-opacity="1"></path><path clip-path="url(#clip750)" d="M46.212 798.28 Q39.7508 798.28 36.0905 800.953 Q32.3984 803.595 32.3984 808.242 Q32.3984 812.889 36.0905 815.562 Q39.7508 818.204 46.212 818.204 Q52.6732 818.204 56.3653 815.562 Q60.0256 812.889 60.0256 808.242 Q60.0256 803.595 56.3653 800.953 Q52.6732 798.28 46.212 798.28 M33.7671 818.204 Q30.5842 816.358 29.0564 813.557 Q27.4968 810.725 27.4968 806.81 Q27.4968 800.317 32.6531 796.274 Q37.8093 792.2 46.212 792.2 Q54.6147 792.2 59.771 796.274 Q64.9272 800.317 64.9272 806.81 Q64.9272 810.725 63.3994 813.557 Q61.8398 816.358 58.657 818.204 L64.0042 818.204 L64.0042 824.092 L14.479 824.092 L14.479 818.204 L33.7671 818.204 Z" fill="#000000" fill-rule="nonzero" fill-opacity="1"></path><path clip-path="url(#clip750)" d="M28.3562 782.493 L28.3562 776.636 L64.6407 776.636 Q71.452 776.636 74.5076 779.246 Q77.5631 781.824 77.5631 787.585 L77.5631 789.813 L72.5979 789.813 L72.5979 788.254 Q72.5979 784.912 71.0383 783.702 Q69.5105 782.493 64.6407 782.493 L28.3562 782.493 M14.479 782.493 L14.479 776.636 L21.895 776.636 L21.895 782.493 L14.479 782.493 Z" fill="#000000" fill-rule="nonzero" fill-opacity="1"></path><path clip-path="url(#clip750)" d="M44.7161 733.89 L47.5806 733.89 L47.5806 760.817 Q53.6281 760.435 56.8109 757.189 Q59.9619 753.911 59.9619 748.086 Q59.9619 744.712 59.1344 741.561 Q58.3069 738.378 56.6518 735.259 L62.1899 735.259 Q63.5267 738.41 64.227 741.72 Q64.9272 745.03 64.9272 748.436 Q64.9272 756.966 59.9619 761.963 Q54.9967 766.928 46.5303 766.928 Q37.7774 766.928 32.6531 762.218 Q27.4968 757.475 27.4968 749.455 Q27.4968 742.261 32.1438 738.092 Q36.7589 733.89 44.7161 733.89 M42.9973 739.747 Q38.1912 739.811 35.3266 742.452 Q32.4621 745.062 32.4621 749.391 Q32.4621 754.293 35.2312 757.253 Q38.0002 760.181 43.0292 760.626 L42.9973 739.747 Z" fill="#000000" fill-rule="nonzero" fill-opacity="1"></path><path clip-path="url(#clip750)" d="M29.7248 698.624 L35.1993 698.624 Q33.8307 701.107 33.1623 703.621 Q32.4621 706.104 32.4621 708.65 Q32.4621 714.348 36.0905 717.499 Q39.6872 720.65 46.212 720.65 Q52.7369 720.65 56.3653 717.499 Q59.9619 714.348 59.9619 708.65 Q59.9619 706.104 59.2935 703.621 Q58.5933 701.107 57.2247 698.624 L62.6355 698.624 Q63.7814 701.075 64.3543 703.717 Q64.9272 706.327 64.9272 709.287 Q64.9272 717.34 59.8664 722.082 Q54.8057 726.824 46.212 726.824 Q37.491 726.824 32.4939 722.05 Q27.4968 717.244 27.4968 708.905 Q27.4968 706.2 28.0697 703.621 Q28.6108 701.043 29.7248 698.624 Z" fill="#000000" fill-rule="nonzero" fill-opacity="1"></path><path clip-path="url(#clip750)" d="M18.2347 682.646 L28.3562 682.646 L28.3562 670.583 L32.9077 670.583 L32.9077 682.646 L52.2594 682.646 Q56.6199 682.646 57.8613 681.469 Q59.1026 680.259 59.1026 676.599 L59.1026 670.583 L64.0042 670.583 L64.0042 676.599 Q64.0042 683.379 61.4897 685.957 Q58.9434 688.535 52.2594 688.535 L32.9077 688.535 L32.9077 692.832 L28.3562 692.832 L28.3562 688.535 L18.2347 688.535 L18.2347 682.646 Z" fill="#000000" fill-rule="nonzero" fill-opacity="1"></path><path clip-path="url(#clip750)" d="M29.4065 640.155 L34.9447 640.155 Q33.6716 642.638 33.035 645.312 Q32.3984 647.985 32.3984 650.85 Q32.3984 655.21 33.7352 657.406 Q35.072 659.571 37.7456 659.571 Q39.7826 659.571 40.9603 658.011 Q42.1061 656.452 43.1565 651.741 L43.6021 649.736 Q44.9389 643.497 47.3897 640.887 Q49.8086 638.246 54.1691 638.246 Q59.1344 638.246 62.0308 642.192 Q64.9272 646.107 64.9272 652.982 Q64.9272 655.847 64.3543 658.966 Q63.8132 662.053 62.6992 665.491 L56.6518 665.491 Q58.3387 662.244 59.198 659.093 Q60.0256 655.942 60.0256 652.855 Q60.0256 648.717 58.6251 646.489 Q57.1929 644.261 54.6147 644.261 Q52.2276 644.261 50.9545 645.885 Q49.6813 647.476 48.5037 652.919 L48.0262 654.956 Q46.8804 660.398 44.5251 662.817 Q42.138 665.236 38.0002 665.236 Q32.9713 665.236 30.2341 661.671 Q27.4968 658.107 27.4968 651.55 Q27.4968 648.304 27.9743 645.439 Q28.4517 642.574 29.4065 640.155 Z" fill="#000000" fill-rule="nonzero" fill-opacity="1"></path><path clip-path="url(#clip750)" d="M683.444 72.576 L660.354 12.096 L668.901 12.096 L688.062 63.0159 L707.263 12.096 L715.77 12.096 L692.721 72.576 L683.444 72.576 Z" fill="#000000" fill-rule="nonzero" fill-opacity="1"></path><path clip-path="url(#clip750)" d="M722.454 27.2059 L729.908 27.2059 L729.908 72.576 L722.454 72.576 L722.454 27.2059 M722.454 9.54393 L729.908 9.54393 L729.908 18.9825 L722.454 18.9825 L722.454 9.54393 Z" fill="#000000" fill-rule="nonzero" fill-opacity="1"></path><path clip-path="url(#clip750)" d="M774.427 28.5427 L774.427 35.5912 Q771.268 33.9709 767.865 33.1607 Q764.462 32.3505 760.816 32.3505 Q755.266 32.3505 752.471 34.0519 Q749.717 35.7533 749.717 39.156 Q749.717 41.7486 751.702 43.2475 Q753.687 44.7058 759.682 46.0426 L762.234 46.6097 Q770.174 48.3111 773.496 51.4303 Q776.858 54.509 776.858 60.0587 Q776.858 66.3781 771.835 70.0644 Q766.852 73.7508 758.102 73.7508 Q754.456 73.7508 750.486 73.0216 Q746.557 72.3329 742.182 70.9151 L742.182 63.2184 Q746.314 65.3654 750.324 66.4591 Q754.335 67.5124 758.264 67.5124 Q763.53 67.5124 766.366 65.73 Q769.202 63.9071 769.202 60.6258 Q769.202 57.5877 767.136 55.9673 Q765.11 54.3469 758.183 52.8481 L755.591 52.2405 Q748.664 50.7821 745.585 47.7845 Q742.506 44.7463 742.506 39.4801 Q742.506 33.0797 747.043 29.5959 Q751.58 26.1121 759.925 26.1121 Q764.057 26.1121 767.703 26.7198 Q771.349 27.3274 774.427 28.5427 Z" fill="#000000" fill-rule="nonzero" fill-opacity="1"></path><path clip-path="url(#clip750)" d="M787.957 54.671 L787.957 27.2059 L795.411 27.2059 L795.411 54.3874 Q795.411 60.8284 797.922 64.0691 Q800.434 67.2693 805.457 67.2693 Q811.493 67.2693 814.977 63.421 Q818.501 59.5726 818.501 52.9291 L818.501 27.2059 L825.955 27.2059 L825.955 72.576 L818.501 72.576 L818.501 65.6084 Q815.787 69.7404 812.182 71.7658 Q808.617 73.7508 803.877 73.7508 Q796.059 73.7508 792.008 68.8897 Q787.957 64.0286 787.957 54.671 M806.713 26.1121 L806.713 26.1121 Z" fill="#000000" fill-rule="nonzero" fill-opacity="1"></path><path clip-path="url(#clip750)" d="M861.927 49.7694 Q852.893 49.7694 849.409 51.8354 Q845.926 53.9013 845.926 58.8839 Q845.926 62.8538 848.518 65.2034 Q851.151 67.5124 855.648 67.5124 Q861.846 67.5124 865.573 63.1374 Q869.34 58.7219 869.34 51.4303 L869.34 49.7694 L861.927 49.7694 M876.794 46.6907 L876.794 72.576 L869.34 72.576 L869.34 65.6895 Q866.788 69.8214 862.98 71.8063 Q859.172 73.7508 853.663 73.7508 Q846.695 73.7508 842.563 69.8619 Q838.472 65.9325 838.472 59.3701 Q838.472 51.7138 843.576 47.825 Q848.721 43.9361 858.889 43.9361 L869.34 43.9361 L869.34 43.2069 Q869.34 38.0623 865.937 35.2672 Q862.575 32.4315 856.458 32.4315 Q852.569 32.4315 848.883 33.3632 Q845.197 34.295 841.794 36.1584 L841.794 29.2718 Q845.885 27.692 849.734 26.9223 Q853.582 26.1121 857.228 26.1121 Q867.071 26.1121 871.933 31.2163 Q876.794 36.3204 876.794 46.6907 Z" fill="#000000" fill-rule="nonzero" fill-opacity="1"></path><path clip-path="url(#clip750)" d="M892.147 9.54393 L899.6 9.54393 L899.6 72.576 L892.147 72.576 L892.147 9.54393 Z" fill="#000000" fill-rule="nonzero" fill-opacity="1"></path><path clip-path="url(#clip750)" d="M915.196 27.2059 L922.65 27.2059 L922.65 72.576 L915.196 72.576 L915.196 27.2059 M915.196 9.54393 L922.65 9.54393 L922.65 18.9825 L915.196 18.9825 L915.196 9.54393 Z" fill="#000000" fill-rule="nonzero" fill-opacity="1"></path><path clip-path="url(#clip750)" d="M935.005 27.2059 L970.41 27.2059 L970.41 34.0114 L942.378 66.6212 L970.41 66.6212 L970.41 72.576 L933.992 72.576 L933.992 65.7705 L962.025 33.1607 L935.005 33.1607 L935.005 27.2059 Z" fill="#000000" fill-rule="nonzero" fill-opacity="1"></path><path clip-path="url(#clip750)" d="M1002.41 49.7694 Q993.379 49.7694 989.895 51.8354 Q986.411 53.9013 986.411 58.8839 Q986.411 62.8538 989.004 65.2034 Q991.637 67.5124 996.133 67.5124 Q1002.33 67.5124 1006.06 63.1374 Q1009.83 58.7219 1009.83 51.4303 L1009.83 49.7694 L1002.41 49.7694 M1017.28 46.6907 L1017.28 72.576 L1009.83 72.576 L1009.83 65.6895 Q1007.27 69.8214 1003.47 71.8063 Q999.658 73.7508 994.148 73.7508 Q987.181 73.7508 983.049 69.8619 Q978.957 65.9325 978.957 59.3701 Q978.957 51.7138 984.062 47.825 Q989.206 43.9361 999.374 43.9361 L1009.83 43.9361 L1009.83 43.2069 Q1009.83 38.0623 1006.42 35.2672 Q1003.06 32.4315 996.943 32.4315 Q993.055 32.4315 989.368 33.3632 Q985.682 34.295 982.279 36.1584 L982.279 29.2718 Q986.371 27.692 990.219 26.9223 Q994.067 26.1121 997.713 26.1121 Q1007.56 26.1121 1012.42 31.2163 Q1017.28 36.3204 1017.28 46.6907 Z" fill="#000000" fill-rule="nonzero" fill-opacity="1"></path><path clip-path="url(#clip750)" d="M1040 14.324 L1040 27.2059 L1055.36 27.2059 L1055.36 32.9987 L1040 32.9987 L1040 57.6282 Q1040 63.1779 1041.5 64.7578 Q1043.04 66.3376 1047.7 66.3376 L1055.36 66.3376 L1055.36 72.576 L1047.7 72.576 Q1039.07 72.576 1035.79 69.3758 Q1032.51 66.1351 1032.51 57.6282 L1032.51 32.9987 L1027.04 32.9987 L1027.04 27.2059 L1032.51 27.2059 L1032.51 14.324 L1040 14.324 Z" fill="#000000" fill-rule="nonzero" fill-opacity="1"></path><path clip-path="url(#clip750)" d="M1065.16 27.2059 L1072.61 27.2059 L1072.61 72.576 L1065.16 72.576 L1065.16 27.2059 M1065.16 9.54393 L1072.61 9.54393 L1072.61 18.9825 L1065.16 18.9825 L1065.16 9.54393 Z" fill="#000000" fill-rule="nonzero" fill-opacity="1"></path><path clip-path="url(#clip750)" d="M1105.79 32.4315 Q1099.8 32.4315 1096.31 37.1306 Q1092.83 41.7891 1092.83 49.9314 Q1092.83 58.0738 1096.27 62.7728 Q1099.76 67.4314 1105.79 67.4314 Q1111.75 67.4314 1115.23 62.7323 Q1118.71 58.0333 1118.71 49.9314 Q1118.71 41.8701 1115.23 37.1711 Q1111.75 32.4315 1105.79 32.4315 M1105.79 26.1121 Q1115.51 26.1121 1121.06 32.4315 Q1126.61 38.7509 1126.61 49.9314 Q1126.61 61.0714 1121.06 67.4314 Q1115.51 73.7508 1105.79 73.7508 Q1096.03 73.7508 1090.48 67.4314 Q1084.97 61.0714 1084.97 49.9314 Q1084.97 38.7509 1090.48 32.4315 Q1096.03 26.1121 1105.79 26.1121 Z" fill="#000000" fill-rule="nonzero" fill-opacity="1"></path><path clip-path="url(#clip750)" d="M1176.68 45.1919 L1176.68 72.576 L1169.23 72.576 L1169.23 45.4349 Q1169.23 38.994 1166.72 35.7938 Q1164.21 32.5936 1159.18 32.5936 Q1153.15 32.5936 1149.66 36.4419 Q1146.18 40.2903 1146.18 46.9338 L1146.18 72.576 L1138.68 72.576 L1138.68 27.2059 L1146.18 27.2059 L1146.18 34.2544 Q1148.85 30.163 1152.46 28.1376 Q1156.1 26.1121 1160.84 26.1121 Q1168.66 26.1121 1172.67 30.9732 Q1176.68 35.7938 1176.68 45.1919 Z" fill="#000000" fill-rule="nonzero" fill-opacity="1"></path><path clip-path="url(#clip750)" d="M1235.5 32.4315 Q1229.51 32.4315 1226.02 37.1306 Q1222.54 41.7891 1222.54 49.9314 Q1222.54 58.0738 1225.98 62.7728 Q1229.47 67.4314 1235.5 67.4314 Q1241.46 67.4314 1244.94 62.7323 Q1248.42 58.0333 1248.42 49.9314 Q1248.42 41.8701 1244.94 37.1711 Q1241.46 32.4315 1235.5 32.4315 M1235.5 26.1121 Q1245.22 26.1121 1250.77 32.4315 Q1256.32 38.7509 1256.32 49.9314 Q1256.32 61.0714 1250.77 67.4314 Q1245.22 73.7508 1235.5 73.7508 Q1225.74 73.7508 1220.19 67.4314 Q1214.68 61.0714 1214.68 49.9314 Q1214.68 38.7509 1220.19 32.4315 Q1225.74 26.1121 1235.5 26.1121 Z" fill="#000000" fill-rule="nonzero" fill-opacity="1"></path><path clip-path="url(#clip750)" d="M1291.65 9.54393 L1291.65 15.7418 L1284.52 15.7418 Q1280.51 15.7418 1278.93 17.3622 Q1277.39 18.9825 1277.39 23.1955 L1277.39 27.2059 L1289.66 27.2059 L1289.66 32.9987 L1277.39 32.9987 L1277.39 72.576 L1269.89 72.576 L1269.89 32.9987 L1262.76 32.9987 L1262.76 27.2059 L1269.89 27.2059 L1269.89 24.0462 Q1269.89 16.471 1273.42 13.0277 Q1276.94 9.54393 1284.6 9.54393 L1291.65 9.54393 Z" fill="#000000" fill-rule="nonzero" fill-opacity="1"></path><path clip-path="url(#clip750)" d="M1360.84 14.0809 L1360.84 22.0612 Q1356.18 19.8332 1352.05 18.7395 Q1347.91 17.6457 1344.07 17.6457 Q1337.38 17.6457 1333.74 20.2383 Q1330.13 22.8309 1330.13 27.611 Q1330.13 31.6214 1332.52 33.6873 Q1334.95 35.7128 1341.68 36.9686 L1346.62 37.9813 Q1355.77 39.7232 1360.11 44.1387 Q1364.48 48.5136 1364.48 55.8863 Q1364.48 64.6767 1358.57 69.2137 Q1352.69 73.7508 1341.31 73.7508 Q1337.02 73.7508 1332.16 72.7785 Q1327.34 71.8063 1322.15 69.9024 L1322.15 61.4765 Q1327.13 64.2716 1331.91 65.6895 Q1336.69 67.1073 1341.31 67.1073 Q1348.32 67.1073 1352.13 64.3527 Q1355.93 61.598 1355.93 56.4939 Q1355.93 52.0379 1353.18 49.5264 Q1350.47 47.0148 1344.23 45.759 L1339.24 44.7868 Q1330.09 42.9639 1326 39.075 Q1321.91 35.1862 1321.91 28.2591 Q1321.91 20.2383 1327.54 15.6203 Q1333.21 11.0023 1343.13 11.0023 Q1347.39 11.0023 1351.8 11.7719 Q1356.22 12.5416 1360.84 14.0809 Z" fill="#000000" fill-rule="nonzero" fill-opacity="1"></path><path clip-path="url(#clip750)" d="M1376.15 54.671 L1376.15 27.2059 L1383.6 27.2059 L1383.6 54.3874 Q1383.6 60.8284 1386.11 64.0691 Q1388.63 67.2693 1393.65 67.2693 Q1399.68 67.2693 1403.17 63.421 Q1406.69 59.5726 1406.69 52.9291 L1406.69 27.2059 L1414.15 27.2059 L1414.15 72.576 L1406.69 72.576 L1406.69 65.6084 Q1403.98 69.7404 1400.37 71.7658 Q1396.81 73.7508 1392.07 73.7508 Q1384.25 73.7508 1380.2 68.8897 Q1376.15 64.0286 1376.15 54.671 M1394.9 26.1121 L1394.9 26.1121 Z" fill="#000000" fill-rule="nonzero" fill-opacity="1"></path><path clip-path="url(#clip750)" d="M1455.79 34.1734 Q1454.53 33.4443 1453.03 33.1202 Q1451.58 32.7556 1449.79 32.7556 Q1443.47 32.7556 1440.07 36.8875 Q1436.71 40.9789 1436.71 48.6757 L1436.71 72.576 L1429.22 72.576 L1429.22 27.2059 L1436.71 27.2059 L1436.71 34.2544 Q1439.06 30.1225 1442.83 28.1376 Q1446.59 26.1121 1451.98 26.1121 Q1452.75 26.1121 1453.68 26.2337 Q1454.61 26.3147 1455.75 26.5172 L1455.79 34.1734 Z" fill="#000000" fill-rule="nonzero" fill-opacity="1"></path><path clip-path="url(#clip750)" d="M1458.26 27.2059 L1466.16 27.2059 L1480.34 65.2844 L1494.52 27.2059 L1502.42 27.2059 L1485.4 72.576 L1475.27 72.576 L1458.26 27.2059 Z" fill="#000000" fill-rule="nonzero" fill-opacity="1"></path><path clip-path="url(#clip750)" d="M1512.7 27.2059 L1520.16 27.2059 L1520.16 72.576 L1512.7 72.576 L1512.7 27.2059 M1512.7 9.54393 L1520.16 9.54393 L1520.16 18.9825 L1512.7 18.9825 L1512.7 9.54393 Z" fill="#000000" fill-rule="nonzero" fill-opacity="1"></path><path clip-path="url(#clip750)" d="M1530.41 27.2059 L1538.31 27.2059 L1552.48 65.2844 L1566.66 27.2059 L1574.56 27.2059 L1557.55 72.576 L1547.42 72.576 L1530.41 27.2059 Z" fill="#000000" fill-rule="nonzero" fill-opacity="1"></path><path clip-path="url(#clip750)" d="M1605.47 49.7694 Q1596.44 49.7694 1592.95 51.8354 Q1589.47 53.9013 1589.47 58.8839 Q1589.47 62.8538 1592.06 65.2034 Q1594.69 67.5124 1599.19 67.5124 Q1605.39 67.5124 1609.12 63.1374 Q1612.88 58.7219 1612.88 51.4303 L1612.88 49.7694 L1605.47 49.7694 M1620.34 46.6907 L1620.34 72.576 L1612.88 72.576 L1612.88 65.6895 Q1610.33 69.8214 1606.52 71.8063 Q1602.72 73.7508 1597.21 73.7508 Q1590.24 73.7508 1586.11 69.8619 Q1582.02 65.9325 1582.02 59.3701 Q1582.02 51.7138 1587.12 47.825 Q1592.26 43.9361 1602.43 43.9361 L1612.88 43.9361 L1612.88 43.2069 Q1612.88 38.0623 1609.48 35.2672 Q1606.12 32.4315 1600 32.4315 Q1596.11 32.4315 1592.43 33.3632 Q1588.74 34.295 1585.34 36.1584 L1585.34 29.2718 Q1589.43 27.692 1593.28 26.9223 Q1597.13 26.1121 1600.77 26.1121 Q1610.61 26.1121 1615.48 31.2163 Q1620.34 36.3204 1620.34 46.6907 Z" fill="#000000" fill-rule="nonzero" fill-opacity="1"></path><path clip-path="url(#clip750)" d="M1635.69 9.54393 L1643.14 9.54393 L1643.14 72.576 L1635.69 72.576 L1635.69 9.54393 Z" fill="#000000" fill-rule="nonzero" fill-opacity="1"></path><path clip-path="url(#clip750)" d="M1693.62 18.8205 L1693.62 65.8515 L1703.5 65.8515 Q1716.02 65.8515 1721.81 60.1802 Q1727.65 54.509 1727.65 42.2752 Q1727.65 30.1225 1721.81 24.4918 Q1716.02 18.8205 1703.5 18.8205 L1693.62 18.8205 M1685.44 12.096 L1702.25 12.096 Q1719.83 12.096 1728.05 19.4281 Q1736.27 26.7198 1736.27 42.2752 Q1736.27 57.9117 1728.01 65.2439 Q1719.75 72.576 1702.25 72.576 L1685.44 72.576 L1685.44 12.096 Z" fill="#000000" fill-rule="nonzero" fill-opacity="1"></path><path clip-path="url(#clip750)" d="M1769.61 49.7694 Q1760.58 49.7694 1757.1 51.8354 Q1753.61 53.9013 1753.61 58.8839 Q1753.61 62.8538 1756.2 65.2034 Q1758.84 67.5124 1763.33 67.5124 Q1769.53 67.5124 1773.26 63.1374 Q1777.03 58.7219 1777.03 51.4303 L1777.03 49.7694 L1769.61 49.7694 M1784.48 46.6907 L1784.48 72.576 L1777.03 72.576 L1777.03 65.6895 Q1774.47 69.8214 1770.67 71.8063 Q1766.86 73.7508 1761.35 73.7508 Q1754.38 73.7508 1750.25 69.8619 Q1746.16 65.9325 1746.16 59.3701 Q1746.16 51.7138 1751.26 47.825 Q1756.41 43.9361 1766.57 43.9361 L1777.03 43.9361 L1777.03 43.2069 Q1777.03 38.0623 1773.62 35.2672 Q1770.26 32.4315 1764.14 32.4315 Q1760.26 32.4315 1756.57 33.3632 Q1752.88 34.295 1749.48 36.1584 L1749.48 29.2718 Q1753.57 27.692 1757.42 26.9223 Q1761.27 26.1121 1764.91 26.1121 Q1774.76 26.1121 1779.62 31.2163 Q1784.48 36.3204 1784.48 46.6907 Z" fill="#000000" fill-rule="nonzero" fill-opacity="1"></path><path clip-path="url(#clip750)" d="M1807.21 14.324 L1807.21 27.2059 L1822.56 27.2059 L1822.56 32.9987 L1807.21 32.9987 L1807.21 57.6282 Q1807.21 63.1779 1808.7 64.7578 Q1810.24 66.3376 1814.9 66.3376 L1822.56 66.3376 L1822.56 72.576 L1814.9 72.576 Q1806.27 72.576 1802.99 69.3758 Q1799.71 66.1351 1799.71 57.6282 L1799.71 32.9987 L1794.24 32.9987 L1794.24 27.2059 L1799.71 27.2059 L1799.71 14.324 L1807.21 14.324 Z" fill="#000000" fill-rule="nonzero" fill-opacity="1"></path><path clip-path="url(#clip750)" d="M1852.98 49.7694 Q1843.95 49.7694 1840.46 51.8354 Q1836.98 53.9013 1836.98 58.8839 Q1836.98 62.8538 1839.57 65.2034 Q1842.21 67.5124 1846.7 67.5124 Q1852.9 67.5124 1856.63 63.1374 Q1860.39 58.7219 1860.39 51.4303 L1860.39 49.7694 L1852.98 49.7694 M1867.85 46.6907 L1867.85 72.576 L1860.39 72.576 L1860.39 65.6895 Q1857.84 69.8214 1854.03 71.8063 Q1850.23 73.7508 1844.72 73.7508 Q1837.75 73.7508 1833.62 69.8619 Q1829.53 65.9325 1829.53 59.3701 Q1829.53 51.7138 1834.63 47.825 Q1839.77 43.9361 1849.94 43.9361 L1860.39 43.9361 L1860.39 43.2069 Q1860.39 38.0623 1856.99 35.2672 Q1853.63 32.4315 1847.51 32.4315 Q1843.62 32.4315 1839.94 33.3632 Q1836.25 34.295 1832.85 36.1584 L1832.85 29.2718 Q1836.94 27.692 1840.79 26.9223 Q1844.64 26.1121 1848.28 26.1121 Q1858.13 26.1121 1862.99 31.2163 Q1867.85 36.3204 1867.85 46.6907 Z" fill="#000000" fill-rule="nonzero" fill-opacity="1"></path><polyline clip-path="url(#clip752)" style="stroke:#808080; stroke-linecap:round; stroke-linejoin:round; stroke-width:16; stroke-opacity:1; fill:none" points="175.445,1260.72 1264.1,1260.72 "></polyline>
<polyline clip-path="url(#clip752)" style="stroke:#808080; stroke-linecap:round; stroke-linejoin:round; stroke-width:16; stroke-opacity:1; fill:none" points="175.445,935.789 1481.83,935.789 "></polyline>
<polyline clip-path="url(#clip752)" style="stroke:#808080; stroke-linecap:round; stroke-linejoin:round; stroke-width:16; stroke-opacity:1; fill:none" points="175.445,610.863 1699.56,610.863 "></polyline>
<polyline clip-path="url(#clip752)" style="stroke:#808080; stroke-linecap:round; stroke-linejoin:round; stroke-width:16; stroke-opacity:1; fill:none" points="175.445,285.936 2352.76,285.936 "></polyline>
<polyline clip-path="url(#clip752)" style="stroke:#808080; stroke-linecap:round; stroke-linejoin:round; stroke-width:16; stroke-opacity:1; fill:none" points="175.445,-38.9913 2788.22,-38.9913 "></polyline>
<polyline clip-path="url(#clip752)" style="stroke:#808080; stroke-linecap:round; stroke-linejoin:round; stroke-width:16; stroke-opacity:1; fill:none" points="175.445,-363.918 3223.68,-363.918 "></polyline>
<polyline clip-path="url(#clip752)" style="stroke:#808080; stroke-linecap:round; stroke-linejoin:round; stroke-width:16; stroke-opacity:1; fill:none" points="175.445,-688.845 3441.41,-688.845 "></polyline>
<polyline clip-path="url(#clip752)" style="stroke:#808080; stroke-linecap:round; stroke-linejoin:round; stroke-width:16; stroke-opacity:1; fill:none" points="175.445,-1013.77 4094.6,-1013.77 "></polyline>
<polyline clip-path="url(#clip752)" style="stroke:#808080; stroke-linecap:round; stroke-linejoin:round; stroke-width:16; stroke-opacity:1; fill:none" points="175.445,-1338.7 4530.07,-1338.7 "></polyline>
<polyline clip-path="url(#clip752)" style="stroke:#808080; stroke-linecap:round; stroke-linejoin:round; stroke-width:16; stroke-opacity:1; fill:none" points="175.445,-1663.63 4747.8,-1663.63 "></polyline>
<circle clip-path="url(#clip752)" cx="1264.1" cy="1260.72" r="28.8" fill="#0000ff" fill-rule="evenodd" fill-opacity="1" stroke="#000000" stroke-opacity="1" stroke-width="3.2"></circle>
<circle clip-path="url(#clip752)" cx="1481.83" cy="935.789" r="28.8" fill="#0000ff" fill-rule="evenodd" fill-opacity="1" stroke="#000000" stroke-opacity="1" stroke-width="3.2"></circle>
<circle clip-path="url(#clip752)" cx="2352.76" cy="285.936" r="28.8" fill="#0000ff" fill-rule="evenodd" fill-opacity="1" stroke="#000000" stroke-opacity="1" stroke-width="3.2"></circle>
<line clip-path="url(#clip752)" x1="1699.56" y1="610.863" x2="1659.56" y2="570.863" style="stroke:#ff0000; stroke-width:4; stroke-opacity:1"></line>
<line clip-path="url(#clip752)" x1="1699.56" y1="610.863" x2="1659.56" y2="650.863" style="stroke:#ff0000; stroke-width:4; stroke-opacity:1"></line>
<line clip-path="url(#clip752)" x1="1699.56" y1="610.863" x2="1739.56" y2="650.863" style="stroke:#ff0000; stroke-width:4; stroke-opacity:1"></line>
<line clip-path="url(#clip752)" x1="1699.56" y1="610.863" x2="1739.56" y2="570.863" style="stroke:#ff0000; stroke-width:4; stroke-opacity:1"></line>
</svg>